<svg width="419" height="186" viewBox="0 0 419 186" fill="none" xmlns="http://www.w3.org/2000/svg">
<rect x="2" y="-32" width="416" height="218" rx="20" fill="#5BA4FD"/>
<path d="M-9 81.1769C36.939 41.8011 65.2261 26.6093 134.347 50.2915C227.248 80.7089 409.754 123.948 396.568 53.5672C380.085 -34.4094 511.445 39.5285 518.438 50.2915C525.431 61.0545 467.992 224.841 299.671 150.903C165.015 91.7527 190.621 149.655 220.256 186C144.552 141.651 -3.34874 67.7837 -5.18024 117.145C-2.3249 144.203 -0.521822 161.843 -5.00426 121.421C-5.17253 119.904 -5.22975 118.48 -5.18024 117.145C-6.39741 105.611 -7.80578 92.3657 -9 81.1769Z" fill="#F7C200"/>
<rect x="179.5" y="71.5" width="61" height="62" rx="9.5" fill="#2764AD" stroke="#2764AD"/>
<path d="M210.593 87.6754H198.465C197.546 87.6754 196.665 88.0404 196.015 88.6903C195.365 89.3401 195 90.2215 195 91.1405V115.397C195 116.316 195.365 117.197 196.015 117.847C196.665 118.497 197.546 118.862 198.465 118.862H222.721C223.64 118.862 224.522 118.497 225.172 117.847C225.822 117.197 226.187 116.316 226.187 115.397V103.269M223.588 85.0765C224.277 84.3872 225.212 84 226.187 84C227.161 84 228.096 84.3872 228.785 85.0765C229.475 85.7658 229.862 86.7006 229.862 87.6754C229.862 88.6501 229.475 89.585 228.785 90.2743L212.326 106.734L205.396 108.466L207.128 101.536L223.588 85.0765Z" stroke="white" stroke-width="3" stroke-linecap="round" stroke-linejoin="round"/>
</svg>
