<svg width="416" height="186" viewBox="0 0 416 186" fill="none" xmlns="http://www.w3.org/2000/svg">
<rect y="-32" width="416" height="218" rx="20" fill="#CBE3FF"/>
<rect x="177.5" y="71.5" width="61" height="62" rx="9.5" fill="#2764AD" stroke="#2764AD"/>
<path d="M208.593 87.6754H196.465C195.546 87.6754 194.665 88.0404 194.015 88.6903C193.365 89.3401 193 90.2215 193 91.1405V115.397C193 116.316 193.365 117.197 194.015 117.847C194.665 118.497 195.546 118.862 196.465 118.862H220.721C221.64 118.862 222.522 118.497 223.172 117.847C223.822 117.197 224.187 116.316 224.187 115.397V103.269M221.588 85.0765C222.277 84.3872 223.212 84 224.187 84C225.161 84 226.096 84.3872 226.785 85.0765C227.475 85.7658 227.862 86.7006 227.862 87.6754C227.862 88.6501 227.475 89.585 226.785 90.2743L210.326 106.734L203.396 108.466L205.128 101.536L221.588 85.0765Z" stroke="white" stroke-width="3" stroke-linecap="round" stroke-linejoin="round"/>
</svg>
