<svg width="419" height="186" viewBox="0 0 419 186" fill="none" xmlns="http://www.w3.org/2000/svg">
<rect x="2" y="-32" width="416" height="218" rx="20" fill="#7187FF"/>
<path d="M173.5 -19C251.9 13 78.5 59 -18 78C-16 114.167 -12.1 179.5 -12.5 151.5C-13 116.5 161.5 94 136.5 114.5C111.5 135 344 224.5 258.5 163C173 101.5 338.5 157.5 392 70.5C445.5 -16.5 75.5 -59 173.5 -19Z" fill="#F7C200"/>
<rect x="220.5" y="-11.5" width="230" height="171" rx="19.5" fill="#FBFBFB" stroke="#AFAFAF"/>
<rect x="243" y="94" width="134" height="40" rx="10" fill="#2764AD"/>
<mask id="path-5-outside-1_12_28" maskUnits="userSpaceOnUse" x="246" y="40" width="270" height="46" fill="black">
<rect fill="white" x="246" y="40" width="270" height="46"/>
<path d="M247 51C247 45.4772 251.477 41 257 41H505C510.523 41 515 45.4772 515 51V75C515 80.5228 510.523 85 505 85H257C251.477 85 247 80.5228 247 75V51Z"/>
</mask>
<path d="M247 51C247 45.4772 251.477 41 257 41H505C510.523 41 515 45.4772 515 51V75C515 80.5228 510.523 85 505 85H257C251.477 85 247 80.5228 247 75V51Z" fill="#F4F4F4"/>
<path d="M257 42H505V40H257V42ZM514 51V75H516V51H514ZM505 84H257V86H505V84ZM248 75V51H246V75H248ZM257 84C252.029 84 248 79.9706 248 75H246C246 81.0751 250.925 86 257 86V84ZM514 75C514 79.9706 509.971 84 505 84V86C511.075 86 516 81.0751 516 75H514ZM505 42C509.971 42 514 46.0294 514 51H516C516 44.9249 511.075 40 505 40V42ZM257 40C250.925 40 246 44.9249 246 51H248C248 46.0294 252.029 42 257 42V40Z" fill="black" mask="url(#path-5-outside-1_12_28)"/>
<path d="M280.011 119V107.364H287.852V109.392H282.472V112.165H287.449V114.193H282.472V116.972H287.875V119H280.011ZM299.541 107.364V119H297.416L292.354 111.676H292.268V119H289.808V107.364H291.967L296.99 114.682H297.092V107.364H299.541ZM303.676 107.364L306.489 116.205H306.597L309.415 107.364H312.142L308.131 119H304.96L300.943 107.364H303.676ZM316.003 107.364V119H313.543V107.364H316.003ZM320.033 119H317.396L321.413 107.364H324.584L328.595 119H325.959L323.044 110.023H322.953L320.033 119ZM319.868 114.426H326.095V116.347H319.868V114.426ZM329.996 119V107.364H334.587C335.465 107.364 336.215 107.521 336.837 107.835C337.462 108.146 337.937 108.587 338.263 109.159C338.592 109.727 338.757 110.396 338.757 111.165C338.757 111.937 338.59 112.602 338.257 113.159C337.924 113.712 337.441 114.136 336.808 114.432C336.179 114.727 335.418 114.875 334.524 114.875H331.45V112.898H334.126C334.596 112.898 334.986 112.833 335.297 112.705C335.607 112.576 335.839 112.383 335.99 112.125C336.145 111.867 336.223 111.547 336.223 111.165C336.223 110.778 336.145 110.453 335.99 110.188C335.839 109.922 335.606 109.722 335.291 109.585C334.981 109.445 334.589 109.375 334.115 109.375H332.456V119H329.996ZM336.28 113.705L339.172 119H336.456L333.626 113.705H336.28Z" fill="white"/>
</svg>
