<svg width="417" height="186" viewBox="0 0 417 186" fill="none" xmlns="http://www.w3.org/2000/svg">
<path d="M0 -12C0 -23.0457 8.95431 -32 20 -32H396C407.046 -32 416 -23.0457 416 -12V166C416 177.046 407.046 186 396 186H20C8.95431 186 0 177.046 0 166V-12Z" fill="#CBE3FF"/>
<path d="M218 8C218 -3.0457 226.954 -12 238 -12H429C440.046 -12 449 -3.0457 449 8V140C449 151.046 440.046 160 429 160H238C226.954 160 218 151.046 218 140V8Z" fill="#FBFBFB"/>
<path d="M241 104C241 98.4772 245.477 94 251 94H365C370.523 94 375 98.4772 375 104V124C375 129.523 370.523 134 365 134H251C245.477 134 241 129.523 241 124V104Z" fill="#2764AD"/>
<path d="M245 51C245 45.4772 249.477 41 255 41H503C508.523 41 513 45.4772 513 51V75C513 80.5228 508.523 85 503 85H255C249.477 85 245 80.5228 245 75V51Z" fill="#F4F4F4"/>
<path fill-rule="evenodd" clip-rule="evenodd" d="M255 40H503C509.075 40 514 44.9249 514 51V75C514 81.0751 509.075 86 503 86H255C248.925 86 244 81.0751 244 75V51C244 44.9249 248.925 40 255 40ZM255 41C249.477 41 245 45.4772 245 51V75C245 80.5228 249.477 85 255 85H503C508.523 85 513 80.5228 513 75V51C513 45.4772 508.523 41 503 41H255Z" fill="black"/>
<path d="M278.011 119V107.364H285.852V109.392H280.472V112.165H285.449V114.193H280.472V116.972H285.875V119H278.011Z" fill="white"/>
<path d="M297.541 107.364V119H295.416L290.354 111.676H290.268V119H287.808V107.364H289.967L294.99 114.682H295.092V107.364H297.541Z" fill="white"/>
<path d="M301.676 107.364L304.489 116.205H304.597L307.415 107.364H310.142L306.131 119H302.96L298.943 107.364H301.676Z" fill="white"/>
<path d="M314.003 107.364V119H311.543V107.364H314.003Z" fill="white"/>
<path d="M318.033 119H315.396L319.413 107.364H322.584L326.595 119H323.959L321.044 110.023H320.953L318.033 119ZM317.868 114.426H324.095V116.347H317.868V114.426Z" fill="white"/>
<path d="M327.996 119V107.364H332.587C333.465 107.364 334.215 107.521 334.837 107.835C335.462 108.146 335.937 108.587 336.263 109.159C336.592 109.727 336.757 110.396 336.757 111.165C336.757 111.938 336.59 112.602 336.257 113.159C335.924 113.712 335.441 114.136 334.808 114.432C334.179 114.727 333.418 114.875 332.524 114.875H329.45V112.898H332.126C332.596 112.898 332.986 112.833 333.297 112.705C333.607 112.576 333.839 112.383 333.99 112.125C334.145 111.867 334.223 111.547 334.223 111.165C334.223 110.778 334.145 110.453 333.99 110.188C333.839 109.922 333.606 109.722 333.291 109.585C332.981 109.445 332.589 109.375 332.115 109.375H330.456V119H327.996ZM334.28 113.705L337.172 119H334.456L331.626 113.705H334.28Z" fill="white"/>
</svg>
