<svg width="416" height="186" viewBox="0 0 416 186" fill="none" xmlns="http://www.w3.org/2000/svg">
<path d="M0 -12C0 -23.0457 8.95431 -32 20 -32H396C407.046 -32 416 -23.0457 416 -12V166C416 177.046 407.046 186 396 186H20C8.95431 186 0 177.046 0 166V-12Z" fill="#CBE3FF"/>
<path d="M91 -25C91 -36.0457 99.9543 -45 111 -45H302C313.046 -45 322 -36.0457 322 -25V107C322 118.046 313.046 127 302 127H111C99.9543 127 91 118.046 91 107V-25Z" fill="#FBFBFB"/>
<path d="M0.5 -12C0.5 -22.7696 9.23045 -31.5 20 -31.5H91.5519C90.8696 -29.4575 90.5 -27.2719 90.5 -25V107C90.5 118.322 99.6782 127.5 111 127.5H302C313.322 127.5 322.5 118.322 322.5 107V-25C322.5 -27.2719 322.13 -29.4575 321.448 -31.5H396C406.77 -31.5 415.5 -22.7696 415.5 -12V166C415.5 176.77 406.77 185.5 396 185.5H20C9.23045 185.5 0.5 176.77 0.5 166V-12ZM302 -44.5C310.112 -44.5 317.067 -39.5469 320.005 -32.5H92.9945C95.9332 -39.5469 102.888 -44.5 111 -44.5H302ZM91.5 -25C91.5 -27.2791 91.891 -29.4669 92.6096 -31.5H320.39C321.109 -29.4669 321.5 -27.2791 321.5 -25V107C321.5 117.77 312.77 126.5 302 126.5H111C100.23 126.5 91.5 117.77 91.5 107V-25Z" stroke="#AFAFAF"/>
<path d="M215.668 75.7725C215.668 74.9288 215.966 74.2044 216.562 73.5993C217.168 73.0027 217.892 72.7044 218.736 72.7044C219.571 72.7044 220.287 73.0027 220.884 73.5993C221.48 74.2044 221.778 74.9288 221.778 75.7725C221.778 76.5907 221.48 77.3066 220.884 77.9203C220.287 78.5339 219.571 78.8407 218.736 78.8407C218.173 78.8407 217.658 78.6958 217.189 78.4061C216.729 78.1248 216.358 77.7541 216.077 77.2939C215.804 76.8336 215.668 76.3265 215.668 75.7725ZM215.668 86.4952C215.668 85.6515 215.966 84.927 216.562 84.3219C217.168 83.7253 217.892 83.427 218.736 83.427C219.571 83.427 220.287 83.7253 220.884 84.3219C221.48 84.927 221.778 85.6515 221.778 86.4952C221.778 87.3134 221.48 88.0293 220.884 88.6429C220.287 89.2566 219.571 89.5634 218.736 89.5634C218.173 89.5634 217.658 89.4185 217.189 89.1287C216.729 88.8475 216.358 88.4767 216.077 88.0165C215.804 87.5563 215.668 87.0492 215.668 86.4952ZM215.668 97.2179C215.668 96.3741 215.966 95.6497 216.562 95.0446C217.168 94.448 217.892 94.1497 218.736 94.1497C219.571 94.1497 220.287 94.448 220.884 95.0446C221.48 95.6497 221.778 96.3741 221.778 97.2179C221.778 98.036 221.48 98.752 220.884 99.3656C220.287 99.9792 219.571 100.286 218.736 100.286C218.173 100.286 217.658 100.141 217.189 99.8514C216.729 99.5701 216.358 99.1994 216.077 98.7392C215.804 98.2789 215.668 97.7718 215.668 97.2179Z" fill="black"/>
<path d="M112 82.5L125.5 72L139 82.5V99C139 99.7956 138.684 100.559 138.121 101.121C137.559 101.684 136.796 102 136 102H115C114.204 102 113.441 101.684 112.879 101.121C112.316 100.559 112 99.7956 112 99V82.5Z" stroke="black" stroke-width="2" stroke-linecap="round" stroke-linejoin="round"/>
<path d="M191.051 102.433V99.0514C191.051 97.2577 190.339 95.5376 189.071 94.2693C187.802 93.001 186.082 92.2885 184.289 92.2885H170.763C168.969 92.2885 167.249 93.001 165.981 94.2693C164.713 95.5376 164 97.2577 164 99.0514V102.433M184.289 78.7628C184.289 82.4979 181.261 85.5257 177.526 85.5257C173.791 85.5257 170.763 82.4979 170.763 78.7628C170.763 75.0278 173.791 72 177.526 72C181.261 72 184.289 75.0278 184.289 78.7628Z" stroke="black" stroke-width="2" stroke-linecap="round" stroke-linejoin="round"/>
<circle cx="125.5" cy="88.5" r="23.5" fill="#2764AD" fill-opacity="0.4"/>
</svg>
