<?xml version="1.0" encoding="UTF-8" standalone="no"?>
<svg
   xmlns:dc="http://purl.org/dc/elements/1.1/"
   xmlns:cc="http://creativecommons.org/ns#"
   xmlns:rdf="http://www.w3.org/1999/02/22-rdf-syntax-ns#"
   xmlns:svg="http://www.w3.org/2000/svg"
   xmlns="http://www.w3.org/2000/svg"
   xmlns:sodipodi="http://sodipodi.sourceforge.net/DTD/sodipodi-0.dtd"
   xmlns:inkscape="http://www.inkscape.org/namespaces/inkscape"
   version="1.1"
   id="svg10"
   width="636.40387"
   height="499.71033"
   viewBox="0 0 636.40387 499.71033"
   sodipodi:docname="icone_endereco_pesquisa.svg"
   inkscape:version="1.0.1 (3bc2e813f5, 2020-09-07)">
  <metadata
     id="metadata16">
    <rdf:RDF>
      <cc:Work
         rdf:about="">
        <dc:format>image/svg+xml</dc:format>
        <dc:type
           rdf:resource="http://purl.org/dc/dcmitype/StillImage" />
        <dc:title />
      </cc:Work>
    </rdf:RDF>
  </metadata>
  <defs
     id="defs14" />
  <sodipodi:namedview
     pagecolor="#ffffff"
     bordercolor="#666666"
     borderopacity="1"
     objecttolerance="10"
     gridtolerance="10"
     guidetolerance="10"
     inkscape:pageopacity="0"
     inkscape:pageshadow="2"
     inkscape:window-width="1920"
     inkscape:window-height="1017"
     id="namedview12"
     showgrid="false"
     inkscape:zoom="0.74642639"
     inkscape:cx="124.74486"
     inkscape:cy="2.943739"
     inkscape:window-x="-8"
     inkscape:window-y="-8"
     inkscape:window-maximized="1"
     inkscape:current-layer="g18"
     inkscape:document-rotation="0" />
  <g
     inkscape:groupmode="layer"
     inkscape:label="Image"
     id="g18"
     transform="translate(-196.37331,-160.41939)">
    <path
       style="fill:#000000"
       d="m 487.70037,659.63067 c -12.24961,-1.4565 -20.19738,-2.7418 -27.75,-4.4876 l -8.75,-2.0227 v -22.3069 -22.3069 l 9.67245,-9.6098 9.67246,-9.6098 h 14.82754 14.82755 v -23.875 -23.875 l -3.125,-0.625 c -7.36357,-1.4727 -6.87515,-2.8317 -6.87364,19.125 l 10e-4,19.75 -11.75136,-0.2908 -11.75136,-0.2908 -12.75,12.125 -12.75,12.125 v 23.4349 23.4348 l -2.75,-0.6475 c -5.18153,-1.2201 -26.74716,-9.6421 -35.75,-13.9614 -17.18793,-8.2463 -39.8434,-23.0122 -54.88132,-35.7694 l -2.88132,-2.4443 12.00078,-8.04 12.00078,-8.04 3.36283,3.4695 c 9.39795,9.6962 28.90724,12.5203 41.59818,6.0214 10.3651,-5.3077 18.08573,-17.0871 19.04676,-29.0595 1.20011,-14.9508 -7.20199,-28.7067 -21.62668,-35.4071 -4.66186,-2.1654 -6.98393,-2.596 -13.62001,-2.5252 -11.20758,0.1195 -18.29687,2.9777 -25.49263,10.278 -7.78594,7.8991 -10.30836,13.537 -10.82262,24.1899 -0.40573,8.4045 -0.48743,8.6451 -3.55002,10.4533 -1.7241,1.0179 -7.74798,5.1343 -13.38641,9.1476 -5.63806,4.0131 -10.46629,7.2966 -10.72904,7.2966 -1.58996,0 -18.83152,-21.178 -27.72651,-34.0567 -5.68697,-8.234 -13.24897,-21.932 -12.1328,-21.9777 0.46222,-0.019 11.02439,0 23.47151,0.033 24.24016,0.072 26.47616,-0.2984 29.60486,-4.9025 1.60324,-2.3592 1.77928,-6.1504 1.93144,-41.5958 0.0921,-21.45 0.20459,-40.0125 0.25,-41.25 0.0804,-2.192 0.36631,-2.25 11.08258,-2.25 6.061,0 11,-0.4148 11,-0.9237 0,-0.5081 -0.52665,-3.2053 -1.17034,-5.9939 l -1.17034,-5.0702 -15.12655,0.2439 c -16.74607,0.27 -18.84298,0.9246 -22.57677,7.0482 -1.83656,3.0121 -1.94874,5.2786 -1.95226,39.4457 l -0.004,36.25 h -22.42815 -22.42815 l -2.15717,-5.75 c -11.22589,-29.923 -16.57381,-57.0377 -17.67059,-89.5924 -0.52634,-15.6227 -0.39397,-18.9966 0.77462,-19.7442 0.79053,-0.5057 23.31336,-0.8888 51.29094,-0.8724 27.43483,0.016 50.07449,-0.1637 50.31036,-0.3995 0.23588,-0.2359 0.84884,-3.5142 1.36214,-7.2852 0.51329,-3.771 1.1697,-7.8688 1.45868,-9.1063 l 0.52542,-2.25 h -51.92543 c -48.91441,0 -51.9059,-0.1015 -51.58869,-1.75 0.1852,-0.9625 1.36814,-7.0375 2.62874,-13.5 l 2.29202,-11.75 h 53.27763 c 41.93755,0 53.28477,0.2661 53.31117,1.25 0.0257,0.9595 10.8977,-18.891 10.95381,-20 0.007,-0.1375 -24.7731,-0.25 -55.06681,-0.25 H 279.0412 l 0.66595,-3.25 c 1.02128,-4.9841 10.07507,-25.7289 15.72568,-36.032 10.89663,-19.8685 23.26482,-36.5113 38.94512,-52.4052 l 10.05034,-10.1873 17.57788,14.1204 c 9.88603,7.9414 19.31587,14.7191 21.54966,15.4887 2.61147,0.8997 5.77339,1.1433 9.23199,0.7112 l 5.26021,-0.6572 -0.39716,29.8079 -0.39715,29.8079 4.70792,-5.4522 c 2.58936,-2.9987 7.0773,-7.8341 9.9732,-10.7453 l 5.26527,-5.293 v -20.2416 -20.2416 l 22.25,0.035 22.25,0.035 0.2933,7.8189 c 0.21121,5.6302 0.63108,7.6778 1.5,7.3149 0.66369,-0.2771 2.8942,-1.0544 4.9567,-1.7271 l 3.75,-1.2233 v -16.5274 -16.5275 l 8.31429,-8.3142 8.31428,-8.3143 h 16.49862 16.49863 l 2.89556,3.0223 c 5.89033,6.1482 15.11657,6.1036 19.52989,-0.094 l 2.08492,-2.928 h 63.08751 63.08752 l 3.59439,2.6748 c 4.3285,3.2212 26.91776,25.2053 28.07735,27.3252 0.72445,1.3244 -4.16161,1.4711 -41.74002,1.2534 l -42.56052,-0.2465 -1.79699,-2.9549 c -5.04381,-8.2939 -17.52902,-7.6816 -21.27206,1.0432 -0.61235,1.4274 -5.83837,6.8747 -11.61337,12.1053 -11.20028,10.1443 -14.5689,13.5814 -13.91054,14.1933 0.2258,0.2098 3.30342,2.2015 6.83917,4.4259 l 6.42862,4.0444 2.57138,-2.0173 c 1.41425,-1.1095 5.35944,-5.0555 8.76709,-8.7688 l 6.19572,-6.7516 5.51097,0.457 c 5.11959,0.4246 5.73255,0.2355 8.6312,-2.6632 l 3.12024,-3.1203 h 47.36463 47.36463 l 4.80844,6.2376 c 2.64465,3.4307 7.17166,9.8432 10.06002,14.25 l 5.25157,8.0124 -44.75157,0.5 c -43.8078,0.4895 -44.84732,0.5472 -49.29172,2.7376 -5.97069,2.9427 -12.13212,9.1498 -15.53602,15.6511 l -2.74651,5.2458 5.83711,7.7553 c 3.21042,4.2654 7.76988,11.4352 10.13215,15.9328 l 4.29503,8.1774 0.0292,-14.3157 c 0.0293,-14.3561 0.62314,-17.3539 3.94254,-19.9025 1.1949,-0.9174 13.38688,-1.226 49.37848,-1.25 l 47.79182,-0.032 2.88679,6.4341 c 7.5255,16.7724 17.02982,53.6116 17.02982,66.0075 v 2.5584 h -54.04531 -54.04532 l 0.50328,3.25 c 0.2768,1.7875 0.76556,5.725 1.08613,8.75 l 0.58286,5.5 h 53.70918 53.70918 l 0.28275,11.25 0.28275,11.25 h -32.9103 c -28.03366,0 -33.09478,-0.2223 -34.1552,-1.5 -0.82007,-0.9881 -3.05382,-1.5 -6.54572,-1.5 -4.21967,0 -5.91746,0.5189 -8.32411,2.5439 -1.6628,1.3992 -3.30265,3.4242 -3.64411,4.5 -0.57008,1.7962 -1.5876,1.9561 -12.44646,1.9561 -13.09541,0 -12.41102,-0.3745 -13.58154,7.4311 l -0.70282,4.6868 12.6242,-0.309 12.6242,-0.3089 0.002,40.5 c 0.002,38.7159 0.0899,40.6443 1.99864,43.7749 1.09819,1.8012 3.15081,3.7137 4.56136,4.25 1.41196,0.5369 13.54608,0.9751 26.99946,0.9751 13.43919,0 24.4349,0.2044 24.4349,0.4543 0,1.221 -10.42808,18.3549 -14.98117,24.6148 l -5.16405,7.0999 9.992,10.2701 c 15.06412,15.4834 19.6997,23.8699 20.87003,37.7577 1.58687,18.8307 -7.93193,35.6634 -24.71681,43.7085 -7.20888,3.4552 -7.92779,3.5947 -18.52103,3.5947 -15.92057,0 -19.86661,-2.1112 -39.38188,-21.0699 l -14.83343,-14.4105 -9.62366,5.527 c -24.74604,14.2119 -60.53151,26.711 -89.89,31.3966 l -4.75,0.7582 v -59.9785 -59.9785 l -4.15462,0.6643 c -2.28504,0.3654 -4.53504,0.8995 -5,1.1869 -0.46496,0.2873 -0.84538,26.9977 -0.84538,59.3565 0,52.7264 -0.16421,58.897 -1.58179,59.441 -1.63275,0.6265 -40.58571,0.5846 -45.91821,-0.049 z m 221.80718,-21.4022 c 19.4898,-4.9207 25.07433,-29.8906 10.61032,-47.4415 -2.26633,-2.75 -21.76063,-22.7964 -43.32067,-44.5476 l -39.20006,-39.5477 -19.41333,18.7389 -19.41332,18.7389 6.0959,6.3087 c 7.82743,8.1008 82.90272,82.6965 86.73,86.176 2.3788,2.1626 3.86244,2.6328 8.30718,2.6328 2.97614,0 7.29793,-0.4763 9.60398,-1.0585 z m -10.30718,-4.2394 c 0,-1.1587 23.99666,-24.2121 24.2892,-23.3345 0.81562,2.4469 -1.46643,10.3744 -4.05247,14.0778 -3.09585,4.4334 -9.56921,8.0683 -15.98673,8.9767 -2.3375,0.3309 -4.25,0.4569 -4.25,0.28 z m -89.53019,-121.6718 10.93571,-10.9697 -2.45276,-2.7648 c -1.34902,-1.5206 -5.04498,-5.4137 -8.21324,-8.6512 l -5.76048,-5.8865 6.40568,-8.6291 c 8.14468,-10.9716 12.10034,-17.7249 15.89051,-27.129 7.81156,-19.3819 10.65655,-37.5238 8.79675,-56.0949 -4.03322,-40.2741 -24.65274,-72.7965 -59.46654,-93.7943 -33.10156,-19.9651 -69.87856,-23.2663 -106.86871,-9.5928 -38.82997,14.3536 -66.70603,45.7496 -76.78606,86.482 -2.99725,12.1116 -3.72472,34.3474 -1.53484,46.9136 6.39153,36.6765 31.57215,70.4632 65.08417,87.3282 6.50271,3.2724 21.81665,8.4967 30.30325,10.3377 9.7511,2.1153 31.99922,2.9104 42.69675,1.526 13.33708,-1.726 26.60667,-5.6678 39.2594,-11.6621 l 11.25941,-5.3342 9.13756,9.4454 c 5.02566,5.195 9.4166,9.4454 9.75765,9.4454 0.34105,0 5.54116,-4.9364 11.55579,-10.9697 z m -116.96981,-15.5358 c -3.85,-0.7288 -9.92196,-2.3099 -13.49324,-3.5136 -29.22342,-9.8494 -53.22748,-35.5668 -62.24926,-66.6924 -1.9473,-6.7183 -2.25234,-10.0557 -2.21993,-24.2885 0.0421,-18.4759 0.93649,-23.1088 7.31966,-37.9147 6.58918,-15.2838 18.71673,-30.359 33.11219,-41.1603 7.23089,-5.4255 23.85497,-13.3525 32.25949,-15.3825 23.59291,-5.6985 45.00735,-3.6117 66.47314,6.4779 33.91369,15.9404 55.05161,46.9305 56.9403,83.4796 0.92632,17.9259 -3.96392,36.7009 -14.06143,53.9857 -5.91172,10.1196 -22.7183,26.6229 -33.58874,32.9826 -9.43668,5.5209 -24.07504,10.8946 -33.99218,12.4785 -8.80244,1.4058 -27.93623,1.1687 -36.5,-0.4523 z m 39.96819,-19.4864 c 29.23459,-7.4769 51.12697,-30.5697 57.14719,-60.2808 1.95115,-9.6293 1.45747,-26.0497 -1.05911,-35.2273 -5.76901,-21.0387 -21.49781,-39.7318 -41.79956,-49.6774 -9.91724,-4.8584 -15.77448,-6.6145 -25.75671,-7.7227 -37.84904,-4.2015 -73.93153,19.7965 -84.39402,56.1294 -10.57718,36.7313 7.10276,75.6367 41.737,91.844 10.59428,4.9577 19.692,6.8102 33.74706,6.8716 9.44358,0.041 14.53641,-0.4427 20.37815,-1.9368 z m -30.96819,-20.4056 c -19.44486,-3.7239 -34.84004,-16.5711 -42.21141,-35.2251 -2.44394,-6.1846 -2.71813,-8.1365 -2.72198,-19.3774 -0.004,-10.4397 0.35952,-13.4778 2.20289,-18.4322 9.74434,-26.1896 33.83893,-40.8228 61.7305,-37.4903 15.04174,1.7971 31.56997,12.4744 39.9368,25.7991 19.05645,30.3487 4.11831,71.6121 -30.05257,83.0136 -8.0684,2.6921 -20.05697,3.4028 -28.88423,1.7123 z m -22.08181,-63.2095 c 0.86997,-0.3338 2.93717,-3.447 4.59379,-6.9181 3.66676,-7.683 10.7178,-14.3467 18.16736,-17.1694 3.97646,-1.5067 5.40476,-2.5835 5.65354,-4.2625 1.01983,-6.8823 -3.93496,-10.8924 -11.09924,-8.9829 -9.52768,2.5395 -21.99432,12.7263 -25.40926,20.7626 -0.77657,1.8274 -1.7965,5.3811 -2.26653,7.897 -0.76367,4.0878 -0.60426,4.8248 1.49832,6.9274 2.29817,2.2982 5.68441,2.9653 8.86202,1.7459 z m 47.75307,-28.048 c 2.27863,-2.0621 2.37042,-7.089 0.17375,-9.5163 -3.60862,-3.9874 -11.34501,-1.189 -11.34501,4.1038 0,6.1525 6.74339,9.4197 11.17126,5.4125 z m -235.67126,280.1631 c -2.75,-0.7809 -5.27414,-1.4396 -5.60921,-1.4639 -2.10093,-0.1522 -10.54867,-9.2615 -12.5252,-13.5061 -9.62931,-20.6787 10.63815,-43.6209 32.83488,-37.1682 15.88655,4.6184 24.36937,23.067 17.21126,37.4314 -5.77697,11.5929 -19.92159,18.1116 -31.91173,14.7068 z m 13.28321,-17.0688 c 3.88482,-2.721 5.43695,-6.9079 4.22682,-11.402 -2.62506,-9.7487 -15.24227,-11.6856 -20.30397,-3.1168 -2.75648,4.6664 -2.20712,8.7785 1.69394,12.6795 2.83107,2.8311 4.1325,3.4 7.77749,3.4 2.40763,0 5.3802,-0.7023 6.60572,-1.5607 z m 86.97113,-52.0622 c -9.53984,-2.8848 -15.43365,-12.8287 -12.8046,-21.6037 1.78643,-5.9626 3.74985,-8.513 8.85813,-11.5067 13.1325,-7.6961 29.88601,3.0678 27.89373,17.9214 -0.75944,5.662 -4.79573,11.2084 -9.88562,13.5841 -6.27146,2.9272 -8.75249,3.2104 -14.06164,1.6049 z m 392.51634,-25.4856 c -6.74445,-0.8615 -12.59997,-3.916 -18.46555,-9.6323 -6.36104,-6.1992 -9.16323,-12.8304 -9.19484,-21.7592 -0.0474,-13.4005 6.40255,-24.1395 18.04001,-30.036 5.20955,-2.6396 6.83459,-2.9618 14.8497,-2.9441 7.30119,0.016 9.86451,0.4465 13.58,2.2802 6.14752,3.034 12.33416,9.1519 15.66463,15.4907 2.39259,4.5538 2.73748,6.3416 2.74111,14.2092 0.003,7.1105 -0.44846,9.9816 -2.15168,13.6757 -6.0869,13.2015 -20.01821,20.6376 -35.06338,18.7158 z m -13.32372,-36.7348 c 0.98523,-2.9103 3.25974,-6.8065 5.05447,-8.6582 3.44253,-3.5518 3.54095,-6.4985 0.21705,-6.4985 -5.27294,0 -13.40129,15.665 -10.15685,19.5743 1.89685,2.2855 2.9334,1.3482 4.88533,-4.4176 z m -554.90586,34.703 c -6.53534,-2.5803 -14.43646,-10.2435 -17.36032,-16.8376 -1.12609,-2.5396 -2.1965,-7.5909 -2.44159,-11.5221 -0.8108,-13.0045 5.86416,-24.4567 17.6193,-30.2295 4.821,-2.3676 6.87776,-2.7705 14.14151,-2.7705 7.04577,0 9.31933,0.4186 13.28897,2.4467 14.81141,7.5673 22.31252,25.5413 16.77684,40.2004 -2.71507,7.1898 -8.88995,14.2158 -15.44246,17.5709 -7.21822,3.6961 -18.84774,4.1956 -26.58225,1.1417 z m -5.70311,-34.7996 c 0.32797,-1.6399 2.21552,-4.7739 4.19455,-6.9644 3.06913,-3.3972 3.43539,-4.2871 2.49086,-6.052 -0.83394,-1.5582 -1.52912,-1.8417 -2.81539,-1.1482 -2.83254,1.5272 -6.02139,5.4136 -7.66028,9.336 -2.02632,4.8497 -1.95875,7.5285 0.20227,8.0192 2.47801,0.5627 2.91504,0.1741 3.58799,-3.1906 z m 486.09117,-9.7808 c -0.39312,-3.1464 -0.39287,-18.8944 5.5e-4,-34.9956 l 0.71532,-29.2749 2.76402,-2.764 c 1.52022,-1.5202 2.95356,-3.3326 3.18521,-4.0276 0.32111,-0.9633 7.60714,-1.4031 30.66346,-1.8508 l 30.24228,-0.5873 v 3.7493 c 0,2.0622 -0.92459,9.1994 -2.05465,15.8605 -3.28494,19.363 -7.3613,34.4127 -13.64083,50.3611 l -3.64209,9.25 H 721.10354 697.34428 Z M 224.1939,373.35267 c -4.85189,-1.4759 -8.68202,-3.9785 -12.41816,-8.114 -5.18365,-5.7376 -7.52702,-11.3293 -7.55341,-18.0236 -0.0639,-16.2137 11.72057,-27.9657 28.09488,-28.0173 8.60932,-0.027 14.70241,2.6143 20.59439,8.9281 7.48281,8.0184 9.19849,22.3102 3.83966,31.9847 -3.48612,6.2935 -8.25142,10.3266 -14.83584,12.5562 -4.96668,1.6817 -13.37744,2.0073 -17.72152,0.6859 z m -7.12238,-29.4683 c 0.67995,-2.7003 2.22668,-5.3434 4.00034,-6.8358 2.20581,-1.8561 2.67084,-2.828 1.96044,-4.0974 -1.38138,-2.4684 -3.34445,-2.0322 -6.21674,1.3813 -2.74286,3.2597 -5.09333,10.2661 -4.21334,12.5593 1.10043,2.8677 3.37541,1.3369 4.4693,-3.0074 z m 571.42869,-26.3988 c -20.5562,-7.3427 -29.61726,-29.8678 -19.51685,-48.5174 8.87298,-16.3834 32.84763,-21.5996 48.8072,-10.6191 13.31498,9.1609 18.71011,27.1469 12.27988,40.9379 -5.46897,11.7294 -16.31983,19.0178 -29.31537,19.6908 -5.09704,0.2639 -8.49773,-0.1502 -12.25486,-1.4922 z m -9.28458,-37.2553 c 0.60079,-2.2311 2.6318,-5.7606 4.51336,-7.8433 3.00008,-3.3207 3.2576,-4.0101 2.09297,-5.6028 -1.24289,-1.6998 -1.47873,-1.7107 -3.67843,-0.1699 -5.83694,4.0883 -10.3421,15.538 -6.69316,17.0104 2.351,0.9487 2.67427,0.6572 3.76526,-3.3944 z m -362.01526,-67.3487 v -32.4054 l 8.75,-3.1772 c 11.23922,-4.0811 32.45726,-9.5314 47.75,-12.2657 16.53392,-2.9562 59.93137,-3.201 77.5,-0.4371 35.00534,5.507 65.84802,16.3962 92.5,32.6576 6.6,4.0269 13.23465,8.0443 14.74368,8.9274 1.50902,0.8832 2.74664,1.8308 2.75026,2.1058 0.004,0.275 -25.72219,0.3766 -57.16846,0.2258 l -57.17504,-0.2742 -3.37184,-3.9392 c -5.71127,-6.6723 -15.01763,-6.4068 -19.31791,0.5512 l -2.12381,3.4364 h -19.18549 -19.1855 l -10.73294,10.7663 -10.73295,10.7664 v 7.7336 7.7337 h -22.5 -22.5 z m -30.61844,24.0798 c -6.76269,-5.1433 -19.58345,-15.1361 -26.2412,-20.4531 -1.42996,-1.142 -1.28248,-1.5417 1.37924,-3.7378 10.04733,-8.2898 34.91463,-23.4542 35.68165,-21.7591 0.36325,0.8027 0.36448,5.7866 0.009,35.0256 -0.15904,13.069 -0.51289,17.2317 -1.45992,17.1744 -0.6875,-0.042 -4.9033,-2.8541 -9.36844,-6.25 z m -78.88156,-11.6087 c -10.62975,-2.5849 -20.95627,-11.3238 -24.46602,-20.7044 -6.94427,-18.5602 3.43665,-37.986 22.95109,-42.9483 16.84595,-4.2837 31.83417,2.3492 39.22293,17.358 7.5077,15.2503 2.49969,32.2429 -12.30459,41.7506 -7.13172,4.5801 -17.57411,6.4481 -25.40341,4.5441 z m -11.99681,-36.3826 c 0.78741,-3.1048 2.51457,-6.1411 4.85921,-8.5422 4.02945,-4.1265 4.36854,-5.2894 2.09303,-7.1779 -1.30538,-1.0834 -2.17509,-0.6765 -5.61638,2.6276 -4.64904,4.4636 -6.83905,8.854 -6.83905,13.7106 0,6.681 3.75916,6.2587 5.50319,-0.6181 z"
       id="path75"
       sodipodi:nodetypes="cscccccccccsccccccccssscccsssssssssssscsssssscssccccssssssscssscsssscsssccsscccsscccccssccccccccsscccssscssssscsscsscccsscssscsscssscsscccsscccccssssssscccsssssscssssscsscccssssccssscccsssssssssscsscssssssssssscsssscssssssssssscssscssccsscssssssssssssssssssscsssssssssssscsssssssssscssssssssssssssssssssssssscssscssscccsscscsscssssssscsssscssscssccssssscscsscccccccccccssscccccsssscssscss" />
  </g>
</svg>
